<svg width="67" height="24" viewBox="0 0 67 24" fill="none" xmlns="http://www.w3.org/2000/svg">
<g clip-path="url(#clip0_4296_3419)">
<path d="M2.23329e-05 12.017C-0.0322207 10.357 0.19984 8.70242 0.687504 7.1153C1.1326 5.71595 1.85508 4.42062 2.81182 3.30665C3.72668 2.24032 4.87782 1.40227 6.17362 0.859211C7.61833 0.264521 9.16953 -0.0279406 10.7316 -0.000141958C12.2981 -0.0271075 13.8536 0.265287 15.3034 0.859211C16.6002 1.404 17.7532 2.24169 18.672 3.30665C19.6082 4.41974 20.3097 5.71054 20.7345 7.10155C21.222 8.68869 21.4541 10.3433 21.422 12.0033C21.4542 13.6611 21.2221 15.3134 20.7345 16.8982C20.3035 18.2866 19.6027 19.5762 18.672 20.6931C17.7536 21.7602 16.6006 22.6002 15.3034 23.1474C13.8536 23.7413 12.2981 24.0337 10.7316 24.0067C9.16953 24.0345 7.61833 23.7421 6.17362 23.1474C4.8775 22.6017 3.72644 21.7613 2.81182 20.6931C1.88432 19.5741 1.18378 18.2851 0.749375 16.8982C0.242226 15.3212 -0.0107205 13.6735 2.23329e-05 12.017ZM5.83674 15.3307C5.79992 15.933 5.90518 16.5354 6.14402 17.0896C6.38285 17.6437 6.74858 18.1339 7.2117 18.5206C8.21001 19.3005 9.45192 19.7023 10.7179 19.655C11.9781 19.7011 13.216 19.3128 14.224 18.555C14.6925 18.1651 15.0615 17.6694 15.3005 17.1087C15.5396 16.5481 15.6419 15.9387 15.599 15.3307V8.66901C15.6408 8.06418 15.5379 7.45809 15.2988 6.90096C15.0597 6.34382 14.6913 5.85169 14.224 5.46534C13.216 4.70755 11.9781 4.3192 10.7179 4.36537C9.45442 4.31998 8.21463 4.71622 7.2117 5.48597C6.7487 5.87131 6.38295 6.36028 6.14408 6.91328C5.9052 7.46627 5.79992 8.06775 5.83674 8.66901V15.3307Z" fill="black"/>
<path d="M25.0518 4.89469V0.549805H40.9188V4.89469H35.2127V19.0912H40.9188V23.4567H29.6235V4.89469H25.0518Z" fill="black"/>
<path d="M45.0852 12.017C45.0641 10.3551 45.3078 8.70045 45.8071 7.11521C46.2381 5.7268 46.939 4.43716 47.8696 3.32031C48.7858 2.25548 49.9365 1.4177 51.2313 0.872875C52.6764 0.279491 54.2274 -0.0129191 55.7893 0.0135225C57.3559 -0.014215 58.9116 0.278209 60.3611 0.872875C61.6589 1.4159 62.8123 2.25387 63.7298 3.32031C64.6656 4.43362 65.3671 5.72436 65.7922 7.11521C66.2765 8.70308 66.5085 10.3571 66.4797 12.017C66.5086 13.6745 66.2766 15.3263 65.7922 16.9118C65.3609 18.3001 64.6601 19.5897 63.7298 20.7067C62.8127 21.7753 61.6593 22.6156 60.3611 23.161C58.9116 23.7557 57.3559 24.0481 55.7893 24.0204C54.2274 24.0468 52.6764 23.7544 51.2313 23.161C49.9362 22.6136 48.7856 21.7735 47.8696 20.7067C46.9445 19.5861 46.2443 18.2976 45.8071 16.9118C45.3078 15.329 45.0642 13.6766 45.0852 12.017ZM50.9357 15.3169C50.9005 15.9189 51.0065 16.5209 51.2453 17.0747C51.484 17.6286 51.8488 18.119 52.3107 18.5068C53.3101 19.2846 54.5512 19.6861 55.8169 19.6411C57.079 19.6855 58.3184 19.2975 59.3299 18.5412C59.7975 18.1505 60.1658 17.6547 60.4048 17.0942C60.6438 16.5338 60.7466 15.9247 60.7049 15.3169V8.66892C60.745 8.06428 60.6413 7.45873 60.4023 6.90187C60.1633 6.34502 59.7958 5.8527 59.3299 5.46526C58.3184 4.70897 57.079 4.32088 55.8169 4.36528C54.5541 4.32503 53.316 4.72073 52.3107 5.48588C51.849 5.87229 51.4841 6.36145 51.2453 6.91418C51.0066 7.46691 50.9005 8.06786 50.9357 8.66892V15.3169Z" fill="black"/>
</g>
<defs>
<clipPath id="clip0_4296_3419">
<rect width="66.5689" height="24" fill="white"/>
</clipPath>
</defs>
</svg>
